<?xml version="1.0" encoding="UTF-8" standalone="no"?>
<!-- Created with Inkscape (http://www.inkscape.org/) -->

<svg
   xmlns:dc="http://purl.org/dc/elements/1.1/"
   xmlns:cc="http://creativecommons.org/ns#"
   xmlns:rdf="http://www.w3.org/1999/02/22-rdf-syntax-ns#"
   xmlns:svg="http://www.w3.org/2000/svg"
   xmlns="http://www.w3.org/2000/svg"
   xmlns:xlink="http://www.w3.org/1999/xlink"
   xmlns:sodipodi="http://sodipodi.sourceforge.net/DTD/sodipodi-0.dtd"
   xmlns:inkscape="http://www.inkscape.org/namespaces/inkscape"
   width="72.496124mm"
   height="65.094955mm"
   viewBox="0 0 72.496124 65.094955"
   version="1.1"
   id="svg8"
   inkscape:version="0.92.5 (2060ec1f9f, 2020-04-08)"
   sodipodi:docname="logo.svg">
  <defs
     id="defs2">
    <linearGradient
       inkscape:collect="always"
       id="linearGradient1301">
      <stop
         style="stop-color:#96d2ee;stop-opacity:0.78341013"
         offset="0"
         id="stop1297" />
      <stop
         style="stop-color:#007fdf;stop-opacity:0.62672812"
         offset="1"
         id="stop1299" />
    </linearGradient>
    <linearGradient
       inkscape:collect="always"
       id="linearGradient855">
      <stop
         style="stop-color:#5781d6;stop-opacity:0.8202765"
         offset="0"
         id="stop851" />
      <stop
         style="stop-color:#2e65af;stop-opacity:0.3548387"
         offset="1"
         id="stop853" />
    </linearGradient>
    <clipPath
       clipPathUnits="userSpaceOnUse"
       id="clipPath889">
      <g
         id="use891"
         inkscape:label="Clip">
        <g
           id="g981"
           transform="matrix(0.26458333,0,0,0.26458333,41.074704,99.129827)"
           style="fill:url(#linearGradient1007);fill-opacity:1;stroke:none;stroke-width:1.37952757;stroke-miterlimit:4;stroke-dasharray:none;stroke-opacity:1">
          <g
             display="none"
             id="g961"
             style="display:none;fill:url(#linearGradient987);fill-opacity:1;stroke:none;stroke-width:1.37952757;stroke-miterlimit:4;stroke-dasharray:none;stroke-opacity:1">
</g>
          <g
             stroke-miterlimit="10"
             display="none"
             id="g967"
             style="display:none;fill:url(#linearGradient993);fill-opacity:1;stroke:none;stroke-width:1.37952757;stroke-miterlimit:4;stroke-dasharray:none;stroke-opacity:1">
		<ellipse
   id="ellipse963"
   display="inline"
   cx="442.63"
   ry="44.901001"
   cy="238.12"
   rx="51.978001"
   style="display:inline;fill:url(#linearGradient989);fill-opacity:1;stroke:none;stroke-width:1.37952757;stroke-miterlimit:4;stroke-dasharray:none;stroke-opacity:1" />

	<path
   id="path965"
   display="inline"
   d="m 518.1,133.06 c -8.659,-2.612 -20.857,12.433 -27.245,33.605 -2.539,8.411 -3.773,16.519 -3.803,23.406 6.851,4.799 12.407,10.834 16.193,17.693 7.022,-4.766 14.444,-16.665 18.963,-31.637 6.39,-21.17 4.55,-40.45 -4.11,-43.06 z"
   inkscape:connector-curvature="0"
   style="display:inline;fill:url(#linearGradient991);fill-opacity:1;stroke:none;stroke-width:1.37952757;stroke-miterlimit:4;stroke-dasharray:none;stroke-opacity:1" />

</g>
          <g
             display="none"
             id="g975"
             style="display:none;fill:url(#linearGradient1001);fill-opacity:1;stroke:none;stroke-width:1.37952757;stroke-miterlimit:4;stroke-dasharray:none;stroke-opacity:1">
	<g
   id="g973"
   display="inline"
   style="display:inline;fill:url(#linearGradient999);fill-opacity:1;stroke:none;stroke-width:1.37952757;stroke-miterlimit:4;stroke-dasharray:none;stroke-opacity:1">
		<g
   id="g971"
   style="fill:url(#linearGradient997);fill-opacity:1;stroke:none;stroke-width:1.37952757;stroke-miterlimit:4;stroke-dasharray:none;stroke-opacity:1">
			<path
   id="path969"
   d="m 477.67,194.54 h 3.601 c 4.064,1.695 5.237,6.283 6,11.28 v 6 c -1.486,8.729 -3.18,17.333 -4.8,25.92 -1.302,6.897 -2.107,12.92 -5.04,18 -0.848,1.467 -2.912,3.258 -3.12,5.04 -1.373,11.767 -7.235,22.15 -9.601,34.08 -2.396,12.086 -3.6,24.099 -8.88,34.56 0.313,5.404 -0.341,10.648 -0.239,15.12 0.097,4.294 1.122,8.326 1.199,12.24 0.408,20.654 -9.637,35.247 -19.199,46.8 -3.794,4.584 -8.505,8.661 -12.48,13.921 -6.763,8.946 -10.756,18.993 -17.52,28.56 0.017,13.643 0.643,28.497 0.72,42.72 0.025,4.799 -0.298,9.884 0.24,14.16 0.555,4.421 3.081,9.099 3.84,13.2 3.607,2.31 6.721,4.229 10.56,6.479 4.02,2.357 11.516,5.618 8.641,12.96 -2.858,7.299 -13.383,7.665 -22.08,6.24 -9.246,-1.514 -17.781,-1.787 -21.841,-8.399 -2.642,-4.306 -4.647,-10.553 -7.199,-16.561 -4.737,-11.152 -6.452,-24.861 -9.12,-38.16 -0.837,-4.172 -1.916,-11.399 -3.601,-17.04 -0.378,-1.267 -0.004,-1.505 -1.199,-1.68 -2.67,-0.391 -1.282,5.286 -1.44,8.64 -0.12,2.549 -1.091,7.066 -1.2,9.12 -0.295,5.542 -0.042,10.533 -0.96,15.36 -2.612,13.74 -8.895,24.302 -17.28,32.88 6.478,2.025 7.93,13.33 1.681,17.521 -3.374,2.262 -8.52,3.047 -13.92,3.84 -12.375,1.816 -27.798,2.899 -40.8,2.16 -2.706,-0.154 -5.1,-1.073 -7.44,-1.2 -2.879,-0.157 -6.409,0.849 -9.84,1.2 -9.291,0.951 -20.641,2.124 -30.72,1.439 -0.152,-0.011 -0.328,-0.015 -0.48,0 -3.223,0.316 -6.841,2.074 -10.56,2.88 -10.494,2.274 -24.163,2.704 -36,3.84 h -16.32 c -50.154,-1.525 -93.389,-9.97 -98.64,-56.399 v -10.08 c 0.494,-4.475 1.403,-9.29 2.64,-13.2 3.714,-11.741 10.647,-21.849 18.24,-28.8 4.914,-4.498 10.847,-8.613 19.44,-11.76 5.749,-2.105 21.382,-6.58 24.24,0 0.811,1.866 0.535,4.269 -0.24,5.76 -1.606,3.092 -6.42,2.804 -10.56,4.08 -11.444,3.527 -18.919,10.594 -24.96,19.2 -8.24,11.739 -13.086,29.545 -4.56,44.64 10.169,18.004 37.171,22.516 64.56,23.76 8.729,0.396 20.695,1.944 28.56,0 3.516,-0.869 7.748,-3.011 12,-5.28 2.346,-1.252 10.086,-5.188 10.32,-7.68 1.068,-11.387 3.392,-19.593 4.32,-29.28 0.287,-2.99 -0.984,-5.508 -1.44,-8.159 -3.454,-20.085 -0.317,-40.908 4.08,-57.36 5.085,-19.028 12.811,-36.24 22.56,-50.88 10.469,-15.721 21.517,-27.634 37.68,-35.76 12.342,-6.205 25.691,-11.515 38.88,-16.32 4.582,-1.669 9.697,-2.035 14.88,-3.6 4.126,-1.246 8.636,-4.066 12.96,-6.24 3.929,-1.976 8.498,-3.855 11.76,-6 2.235,-1.47 4.139,-4.571 6.48,-6.96 1.939,-1.979 3.927,-4.355 6.479,-6.48 4.442,-3.697 10.738,-7.287 12.72,-13.2 1.851,-5.521 0.298,-12.414 0.48,-19.68 -5.426,-7.66 -6.318,-19.758 -9.12,-30.72 -1.231,-4.819 -3.267,-9.802 -4.08,-15.84 -0.739,-5.49 -0.514,-14.32 4.561,-14.88 4.221,-0.465 7.282,3.443 9.84,6 5.761,5.761 10.041,10.067 16.08,15.12 2.625,2.196 6.228,5.534 9.6,6 2.992,0.413 7.522,-1.302 11.521,-1.44 3.756,-0.13 7.458,0.219 12,0.96 3.109,-1.871 5.27,-5.109 7.92,-7.92 2.589,-2.746 5.194,-5.647 7.92,-8.64 4.59,-5.04 11.12,-13.01 17.28,-16.08 z"
   inkscape:connector-curvature="0"
   style="clip-rule:evenodd;fill:url(#linearGradient995);fill-opacity:1;fill-rule:evenodd;stroke:none;stroke-width:1.37952757;stroke-miterlimit:4;stroke-dasharray:none;stroke-opacity:1" />

		</g>

	</g>

</g>
          <g
             id="g979"
             style="fill:url(#linearGradient1005);fill-opacity:1;stroke:none;stroke-width:1.37952757;stroke-miterlimit:4;stroke-dasharray:none;stroke-opacity:1">
	<path
   id="path977"
   d="m 219.83,28.356 c -0.345,-6.779 1.301,-13.54 9.569,-5.483 8.27,8.057 11.449,11.343 14.418,13.251 2.968,1.908 4.24,1.441 8.057,0.805 3.815,-0.636 4.452,-0.805 7.95,-0.275 3.498,0.53 2.933,0.954 5.865,-1.908 2.934,-2.862 9.188,-10.601 15.23,-16.326 6.042,-5.724 11.031,-4.134 11.031,5.937 0,10.071 -4.322,18.986 -5.198,27.881 -0.53,5.385 -2.65,2.237 -3.817,9.753 -1.03,6.636 -5.194,14.417 -6.36,22.792 -1.166,8.375 -3.656,17.386 -4.912,19.931 -1.257,2.544 -0.918,2.334 -0.918,7.634 0,5.3 0.115,5.174 0.424,9.752 0.637,9.435 0.637,14.312 -8.374,28.304 -9.011,13.994 -9.647,10.389 -14.735,18.871 -5.088,8.482 -7.421,12.827 -9.116,15.16 -1.696,2.332 -0.742,0.211 -0.742,3.074 0,2.862 -0.426,33.499 0.423,36.998 0.849,3.498 1.484,8.162 2.969,8.692 1.485,0.53 7.844,4.135 11.131,6.785 3.286,2.649 2.598,10.08 -6.572,10.706 -4.452,0.305 -18.921,-0.247 -22.368,-7.525 -3.816,-8.058 -7.584,-18.874 -8.48,-25.761 -2.333,-17.917 -5.726,-25.126 -5.726,-25.126 0,0 1.084,8.296 -1.166,22.263 -2.545,15.795 -12.615,25.124 -12.615,25.124 0,0 4.45,1.804 4.239,6.044 -0.212,4.24 -1.273,7.739 -22.37,9.33 -21.095,1.59 -20.4,-0.53 -22.709,-0.425 -2.309,0.106 -6.974,0.849 -13.971,1.696 -6.997,0.849 -11.767,-0.317 -13.887,0 -2.12,0.318 -14.205,6.996 -56.291,4.134 -42.085,-2.862 -52.847,-22.499 -52.847,-40.129 0,-28.439 21.756,-42.36 33.936,-42.828 8.802,-0.339 19.806,8.633 1.523,8.972 -11.509,0.213 -22.006,12.865 -22.006,33.01 0,20.145 19.467,25.73 39.611,25.73 18.102,0 25.106,1.263 30.47,-1.185 9.649,-4.401 11.342,-6.433 11.85,-12.02 0.508,-5.586 3.555,-15.065 0.508,-42.828 -3.047,-27.762 23.191,-67.204 51.292,-78.715 28.101,-11.511 22.684,-7.787 29.116,-9.987 6.433,-2.201 16.42,-6.94 19.129,-10.326 2.708,-3.386 10.495,-10.157 12.696,-12.357 4.249,-4.25 3.323,-7.116 3.05,-17.128 -0.037,-1.364 -1.696,-2.17 -3.05,-7.249 -1.354,-5.079 -1.632,-8.107 -3.155,-13.693 -1.51,-5.551 -3,-9.567 -3.09,-11.321 z"
   inkscape:connector-curvature="0"
   style="fill:url(#linearGradient1003);fill-opacity:1;stroke:none;stroke-width:1.37952757;stroke-miterlimit:4;stroke-dasharray:none;stroke-opacity:1" />

</g>
        </g>
        <path
           style="fill:#ffffff;fill-opacity:0.07373274;stroke:none;stroke-width:0.26458332px;stroke-linecap:butt;stroke-linejoin:miter;stroke-opacity:1"
           d="m 65.51745,134.26636 c 13.12718,-1.53597 35.92928,-0.8997 57.13848,21.09884 L 133.86154,91.059168 59.05656,102.06287 Z"
           id="path983"
           inkscape:connector-curvature="0"
           sodipodi:nodetypes="ccccc" />
      </g>
    </clipPath>
    <linearGradient
       inkscape:collect="always"
       xlink:href="#linearGradient855"
       id="linearGradient939"
       gradientUnits="userSpaceOnUse"
       x1="122.88786"
       y1="245.73788"
       x2="272.10947"
       y2="41.609413" />
    <linearGradient
       inkscape:collect="always"
       xlink:href="#linearGradient855"
       id="linearGradient941"
       gradientUnits="userSpaceOnUse"
       x1="122.88786"
       y1="245.73788"
       x2="272.10947"
       y2="41.609413" />
    <linearGradient
       inkscape:collect="always"
       xlink:href="#linearGradient855"
       id="linearGradient943"
       gradientUnits="userSpaceOnUse"
       x1="122.88786"
       y1="245.73788"
       x2="272.10947"
       y2="41.609413" />
    <linearGradient
       inkscape:collect="always"
       xlink:href="#linearGradient855"
       id="linearGradient945"
       gradientUnits="userSpaceOnUse"
       x1="122.88786"
       y1="245.73788"
       x2="272.10947"
       y2="41.609413" />
    <linearGradient
       inkscape:collect="always"
       xlink:href="#linearGradient855"
       id="linearGradient947"
       gradientUnits="userSpaceOnUse"
       x1="122.88786"
       y1="245.73788"
       x2="272.10947"
       y2="41.609413" />
    <linearGradient
       inkscape:collect="always"
       xlink:href="#linearGradient855"
       id="linearGradient949"
       gradientUnits="userSpaceOnUse"
       x1="122.88786"
       y1="245.73788"
       x2="272.10947"
       y2="41.609413" />
    <linearGradient
       inkscape:collect="always"
       xlink:href="#linearGradient855"
       id="linearGradient951"
       gradientUnits="userSpaceOnUse"
       x1="122.88786"
       y1="245.73788"
       x2="272.10947"
       y2="41.609413" />
    <linearGradient
       inkscape:collect="always"
       xlink:href="#linearGradient855"
       id="linearGradient953"
       gradientUnits="userSpaceOnUse"
       x1="122.88786"
       y1="245.73788"
       x2="272.10947"
       y2="41.609413" />
    <linearGradient
       inkscape:collect="always"
       xlink:href="#linearGradient1301"
       id="linearGradient955"
       gradientUnits="userSpaceOnUse"
       x1="122.88786"
       y1="245.73788"
       x2="272.10947"
       y2="41.609413" />
    <linearGradient
       inkscape:collect="always"
       xlink:href="#linearGradient855"
       id="linearGradient957"
       gradientUnits="userSpaceOnUse"
       x1="122.88786"
       y1="245.73788"
       x2="272.10947"
       y2="41.609413" />
    <linearGradient
       inkscape:collect="always"
       xlink:href="#linearGradient1301"
       id="linearGradient959"
       gradientUnits="userSpaceOnUse"
       x1="176.98154"
       y1="245.03078"
       x2="176.98154"
       y2="44.791393" />
    <linearGradient
       inkscape:collect="always"
       xlink:href="#linearGradient855"
       id="linearGradient987"
       gradientUnits="userSpaceOnUse"
       x1="122.88786"
       y1="245.73788"
       x2="272.10947"
       y2="41.609413" />
    <linearGradient
       inkscape:collect="always"
       xlink:href="#linearGradient855"
       id="linearGradient989"
       gradientUnits="userSpaceOnUse"
       x1="122.88786"
       y1="245.73788"
       x2="272.10947"
       y2="41.609413" />
    <linearGradient
       inkscape:collect="always"
       xlink:href="#linearGradient855"
       id="linearGradient991"
       gradientUnits="userSpaceOnUse"
       x1="122.88786"
       y1="245.73788"
       x2="272.10947"
       y2="41.609413" />
    <linearGradient
       inkscape:collect="always"
       xlink:href="#linearGradient855"
       id="linearGradient993"
       gradientUnits="userSpaceOnUse"
       x1="122.88786"
       y1="245.73788"
       x2="272.10947"
       y2="41.609413" />
    <linearGradient
       inkscape:collect="always"
       xlink:href="#linearGradient855"
       id="linearGradient995"
       gradientUnits="userSpaceOnUse"
       x1="122.88786"
       y1="245.73788"
       x2="272.10947"
       y2="41.609413" />
    <linearGradient
       inkscape:collect="always"
       xlink:href="#linearGradient855"
       id="linearGradient997"
       gradientUnits="userSpaceOnUse"
       x1="122.88786"
       y1="245.73788"
       x2="272.10947"
       y2="41.609413" />
    <linearGradient
       inkscape:collect="always"
       xlink:href="#linearGradient855"
       id="linearGradient999"
       gradientUnits="userSpaceOnUse"
       x1="122.88786"
       y1="245.73788"
       x2="272.10947"
       y2="41.609413" />
    <linearGradient
       inkscape:collect="always"
       xlink:href="#linearGradient855"
       id="linearGradient1001"
       gradientUnits="userSpaceOnUse"
       x1="122.88786"
       y1="245.73788"
       x2="272.10947"
       y2="41.609413" />
    <linearGradient
       inkscape:collect="always"
       xlink:href="#linearGradient855"
       id="linearGradient1003"
       gradientUnits="userSpaceOnUse"
       x1="122.88786"
       y1="245.73788"
       x2="272.10947"
       y2="41.609413" />
    <linearGradient
       inkscape:collect="always"
       xlink:href="#linearGradient855"
       id="linearGradient1005"
       gradientUnits="userSpaceOnUse"
       x1="122.88786"
       y1="245.73788"
       x2="272.10947"
       y2="41.609413" />
    <linearGradient
       inkscape:collect="always"
       xlink:href="#linearGradient855"
       id="linearGradient1007"
       gradientUnits="userSpaceOnUse"
       x1="122.88786"
       y1="245.73788"
       x2="272.10947"
       y2="41.609413" />
  </defs>
  <sodipodi:namedview
     id="base"
     pagecolor="#ffffff"
     bordercolor="#666666"
     borderopacity="1.0"
     inkscape:pageopacity="0.0"
     inkscape:pageshadow="2"
     inkscape:zoom="2.8284271"
     inkscape:cx="92.033942"
     inkscape:cy="52.723127"
     inkscape:document-units="mm"
     inkscape:current-layer="g1283"
     showgrid="false"
     inkscape:window-width="3840"
     inkscape:window-height="2088"
     inkscape:window-x="0"
     inkscape:window-y="24"
     inkscape:window-maximized="1" />
  <metadata
     id="metadata5">
    <rdf:RDF>
      <cc:Work
         rdf:about="">
        <dc:format>image/svg+xml</dc:format>
        <dc:type
           rdf:resource="http://purl.org/dc/dcmitype/StillImage" />
        <dc:title></dc:title>
      </cc:Work>
    </rdf:RDF>
  </metadata>
  <g
     inkscape:label="Layer 1"
     inkscape:groupmode="layer"
     id="layer1"
     transform="translate(-53.297553,-108.58358)">
    <g
       id="g1283">
      <g
         id="g1360">
        <g
           style="fill:url(#linearGradient959);fill-opacity:1;stroke:none;stroke-width:1.37952757;stroke-miterlimit:4;stroke-dasharray:none;stroke-opacity:1"
           transform="matrix(0.26458333,0,0,0.26458333,48.545107,104.5812)"
           id="g849">
          <g
             style="display:none;fill:url(#linearGradient939);fill-opacity:1;stroke:none;stroke-width:1.37952757;stroke-miterlimit:4;stroke-dasharray:none;stroke-opacity:1"
             id="Layer_1"
             display="none">
</g>
          <g
             style="display:none;fill:url(#linearGradient945);fill-opacity:1;stroke:none;stroke-width:1.37952757;stroke-miterlimit:4;stroke-dasharray:none;stroke-opacity:1"
             id="Head"
             display="none"
             stroke-miterlimit="10">
		<ellipse
   style="display:inline;fill:url(#linearGradient941);fill-opacity:1;stroke:none;stroke-width:1.37952757;stroke-miterlimit:4;stroke-dasharray:none;stroke-opacity:1"
   rx="51.978001"
   cy="238.12"
   ry="44.901001"
   cx="442.63"
   display="inline"
   id="ellipse816" />

	<path
   style="display:inline;fill:url(#linearGradient943);fill-opacity:1;stroke:none;stroke-width:1.37952757;stroke-miterlimit:4;stroke-dasharray:none;stroke-opacity:1"
   inkscape:connector-curvature="0"
   d="m 518.1,133.06 c -8.659,-2.612 -20.857,12.433 -27.245,33.605 -2.539,8.411 -3.773,16.519 -3.803,23.406 6.851,4.799 12.407,10.834 16.193,17.693 7.022,-4.766 14.444,-16.665 18.963,-31.637 6.39,-21.17 4.55,-40.45 -4.11,-43.06 z"
   display="inline"
   id="path818" />

</g>
          <g
             style="display:none;fill:url(#linearGradient953);fill-opacity:1;stroke:none;stroke-width:1.37952757;stroke-miterlimit:4;stroke-dasharray:none;stroke-opacity:1"
             id="Layer_5"
             display="none">
	<g
   style="display:inline;fill:url(#linearGradient951);fill-opacity:1;stroke:none;stroke-width:1.37952757;stroke-miterlimit:4;stroke-dasharray:none;stroke-opacity:1"
   display="inline"
   id="g825">
		<g
   style="fill:url(#linearGradient949);fill-opacity:1;stroke:none;stroke-width:1.37952757;stroke-miterlimit:4;stroke-dasharray:none;stroke-opacity:1"
   id="g823">
			<path
   style="clip-rule:evenodd;fill:url(#linearGradient947);fill-opacity:1;fill-rule:evenodd;stroke:none;stroke-width:1.37952757;stroke-miterlimit:4;stroke-dasharray:none;stroke-opacity:1"
   inkscape:connector-curvature="0"
   d="m 477.67,194.54 h 3.601 c 4.064,1.695 5.237,6.283 6,11.28 v 6 c -1.486,8.729 -3.18,17.333 -4.8,25.92 -1.302,6.897 -2.107,12.92 -5.04,18 -0.848,1.467 -2.912,3.258 -3.12,5.04 -1.373,11.767 -7.235,22.15 -9.601,34.08 -2.396,12.086 -3.6,24.099 -8.88,34.56 0.313,5.404 -0.341,10.648 -0.239,15.12 0.097,4.294 1.122,8.326 1.199,12.24 0.408,20.654 -9.637,35.247 -19.199,46.8 -3.794,4.584 -8.505,8.661 -12.48,13.921 -6.763,8.946 -10.756,18.993 -17.52,28.56 0.017,13.643 0.643,28.497 0.72,42.72 0.025,4.799 -0.298,9.884 0.24,14.16 0.555,4.421 3.081,9.099 3.84,13.2 3.607,2.31 6.721,4.229 10.56,6.479 4.02,2.357 11.516,5.618 8.641,12.96 -2.858,7.299 -13.383,7.665 -22.08,6.24 -9.246,-1.514 -17.781,-1.787 -21.841,-8.399 -2.642,-4.306 -4.647,-10.553 -7.199,-16.561 -4.737,-11.152 -6.452,-24.861 -9.12,-38.16 -0.837,-4.172 -1.916,-11.399 -3.601,-17.04 -0.378,-1.267 -0.004,-1.505 -1.199,-1.68 -2.67,-0.391 -1.282,5.286 -1.44,8.64 -0.12,2.549 -1.091,7.066 -1.2,9.12 -0.295,5.542 -0.042,10.533 -0.96,15.36 -2.612,13.74 -8.895,24.302 -17.28,32.88 6.478,2.025 7.93,13.33 1.681,17.521 -3.374,2.262 -8.52,3.047 -13.92,3.84 -12.375,1.816 -27.798,2.899 -40.8,2.16 -2.706,-0.154 -5.1,-1.073 -7.44,-1.2 -2.879,-0.157 -6.409,0.849 -9.84,1.2 -9.291,0.951 -20.641,2.124 -30.72,1.439 -0.152,-0.011 -0.328,-0.015 -0.48,0 -3.223,0.316 -6.841,2.074 -10.56,2.88 -10.494,2.274 -24.163,2.704 -36,3.84 h -16.32 c -50.154,-1.525 -93.389,-9.97 -98.64,-56.399 v -10.08 c 0.494,-4.475 1.403,-9.29 2.64,-13.2 3.714,-11.741 10.647,-21.849 18.24,-28.8 4.914,-4.498 10.847,-8.613 19.44,-11.76 5.749,-2.105 21.382,-6.58 24.24,0 0.811,1.866 0.535,4.269 -0.24,5.76 -1.606,3.092 -6.42,2.804 -10.56,4.08 -11.444,3.527 -18.919,10.594 -24.96,19.2 -8.24,11.739 -13.086,29.545 -4.56,44.64 10.169,18.004 37.171,22.516 64.56,23.76 8.729,0.396 20.695,1.944 28.56,0 3.516,-0.869 7.748,-3.011 12,-5.28 2.346,-1.252 10.086,-5.188 10.32,-7.68 1.068,-11.387 3.392,-19.593 4.32,-29.28 0.287,-2.99 -0.984,-5.508 -1.44,-8.159 -3.454,-20.085 -0.317,-40.908 4.08,-57.36 5.085,-19.028 12.811,-36.24 22.56,-50.88 10.469,-15.721 21.517,-27.634 37.68,-35.76 12.342,-6.205 25.691,-11.515 38.88,-16.32 4.582,-1.669 9.697,-2.035 14.88,-3.6 4.126,-1.246 8.636,-4.066 12.96,-6.24 3.929,-1.976 8.498,-3.855 11.76,-6 2.235,-1.47 4.139,-4.571 6.48,-6.96 1.939,-1.979 3.927,-4.355 6.479,-6.48 4.442,-3.697 10.738,-7.287 12.72,-13.2 1.851,-5.521 0.298,-12.414 0.48,-19.68 -5.426,-7.66 -6.318,-19.758 -9.12,-30.72 -1.231,-4.819 -3.267,-9.802 -4.08,-15.84 -0.739,-5.49 -0.514,-14.32 4.561,-14.88 4.221,-0.465 7.282,3.443 9.84,6 5.761,5.761 10.041,10.067 16.08,15.12 2.625,2.196 6.228,5.534 9.6,6 2.992,0.413 7.522,-1.302 11.521,-1.44 3.756,-0.13 7.458,0.219 12,0.96 3.109,-1.871 5.27,-5.109 7.92,-7.92 2.589,-2.746 5.194,-5.647 7.92,-8.64 4.59,-5.04 11.12,-13.01 17.28,-16.08 z"
   id="path821" />

		</g>

	</g>

</g>
          <g
             style="fill:url(#linearGradient957);fill-opacity:1;stroke:none;stroke-width:1.37952757;stroke-miterlimit:4;stroke-dasharray:none;stroke-opacity:1"
             id="Trace">
	<path
   style="fill:url(#linearGradient955);fill-opacity:1;stroke:none;stroke-width:1.37952757;stroke-miterlimit:4;stroke-dasharray:none;stroke-opacity:1"
   inkscape:connector-curvature="0"
   d="m 219.83,28.356 c -0.345,-6.779 1.301,-13.54 9.569,-5.483 8.27,8.057 11.449,11.343 14.418,13.251 2.968,1.908 4.24,1.441 8.057,0.805 3.815,-0.636 4.452,-0.805 7.95,-0.275 3.498,0.53 2.933,0.954 5.865,-1.908 2.934,-2.862 9.188,-10.601 15.23,-16.326 6.042,-5.724 11.031,-4.134 11.031,5.937 0,10.071 -4.322,18.986 -5.198,27.881 -0.53,5.385 -2.65,2.237 -3.817,9.753 -1.03,6.636 -5.194,14.417 -6.36,22.792 -1.166,8.375 -3.656,17.386 -4.912,19.931 -1.257,2.544 -0.918,2.334 -0.918,7.634 0,5.3 0.115,5.174 0.424,9.752 0.637,9.435 0.637,14.312 -8.374,28.304 -9.011,13.994 -9.647,10.389 -14.735,18.871 -5.088,8.482 -7.421,12.827 -9.116,15.16 -1.696,2.332 -0.742,0.211 -0.742,3.074 0,2.862 -0.426,33.499 0.423,36.998 0.849,3.498 1.484,8.162 2.969,8.692 1.485,0.53 7.844,4.135 11.131,6.785 3.286,2.649 2.598,10.08 -6.572,10.706 -4.452,0.305 -18.921,-0.247 -22.368,-7.525 -3.816,-8.058 -7.584,-18.874 -8.48,-25.761 -2.333,-17.917 -5.726,-25.126 -5.726,-25.126 0,0 1.084,8.296 -1.166,22.263 -2.545,15.795 -12.615,25.124 -12.615,25.124 0,0 4.45,1.804 4.239,6.044 -0.212,4.24 -1.273,7.739 -22.37,9.33 -21.095,1.59 -20.4,-0.53 -22.709,-0.425 -2.309,0.106 -6.974,0.849 -13.971,1.696 -6.997,0.849 -11.767,-0.317 -13.887,0 -2.12,0.318 -14.205,6.996 -56.291,4.134 -42.085,-2.862 -52.847,-22.499 -52.847,-40.129 0,-28.439 21.756,-42.36 33.936,-42.828 8.802,-0.339 19.806,8.633 1.523,8.972 -11.509,0.213 -22.006,12.865 -22.006,33.01 0,20.145 19.467,25.73 39.611,25.73 18.102,0 25.106,1.263 30.47,-1.185 9.649,-4.401 11.342,-6.433 11.85,-12.02 0.508,-5.586 3.555,-15.065 0.508,-42.828 -3.047,-27.762 23.191,-67.204 51.292,-78.715 28.101,-11.511 22.684,-7.787 29.116,-9.987 6.433,-2.201 16.42,-6.94 19.129,-10.326 2.708,-3.386 10.495,-10.157 12.696,-12.357 4.249,-4.25 3.323,-7.116 3.05,-17.128 -0.037,-1.364 -1.696,-2.17 -3.05,-7.249 -1.354,-5.079 -1.632,-8.107 -3.155,-13.693 -1.51,-5.551 -3,-9.567 -3.09,-11.321 z"
   id="path828" />

</g>
        </g>
        <g
           style="fill:#ffffff;fill-opacity:0.08294929;stroke:none;stroke-width:1.37952757;stroke-miterlimit:4;stroke-dasharray:none;stroke-opacity:1"
           transform="matrix(0.26458333,0,0,0.26458333,93.722711,104.71349)"
           id="g1247">
          <g
             style="display:none;fill:#ffffff;fill-opacity:0.08294929;stroke:none;stroke-width:1.37952757;stroke-miterlimit:4;stroke-dasharray:none;stroke-opacity:1"
             id="g1227"
             display="none" />
          <g
             style="display:none;fill:#ffffff;fill-opacity:0.08294929;stroke:none;stroke-width:1.37952757;stroke-miterlimit:4;stroke-dasharray:none;stroke-opacity:1"
             id="g1233"
             display="none"
             stroke-miterlimit="10" />
          <g
             style="display:none;fill:#ffffff;fill-opacity:0.08294929;stroke:none;stroke-width:1.37952757;stroke-miterlimit:4;stroke-dasharray:none;stroke-opacity:1"
             id="g1241"
             display="none">
            <g
               style="display:inline;fill:#ffffff;fill-opacity:0.08294929;stroke:none;stroke-width:1.37952757;stroke-miterlimit:4;stroke-dasharray:none;stroke-opacity:1"
               display="inline"
               id="g1239">
              <g
                 style="fill:#ffffff;fill-opacity:0.08294929;stroke:none;stroke-width:1.37952757;stroke-miterlimit:4;stroke-dasharray:none;stroke-opacity:1"
                 id="g1237" />
            </g>
          </g>
          <g
             style="fill:#ffffff;fill-opacity:0.08294929;stroke:none;stroke-width:1.37952757;stroke-miterlimit:4;stroke-dasharray:none;stroke-opacity:1"
             id="g1245">
            <path
               inkscape:connector-curvature="0"
               id="path1330"
               d="m 116.32833,14.661486 c -1.76203,0.0279 -3.88074,1.14647 -6.14649,3.29297 -6.042,5.725 -12.296462,13.46417 -15.230462,16.32617 -2.932,2.862 -2.36724,2.4382 -5.86524,1.90821 -3.498,-0.53 -4.13422,-0.36061 -7.94922,0.27539 -3.817,0.636 -5.08864,1.10135 -8.05664,-0.80665 -2.969,-1.90799 -6.14797,-5.193 -14.41797,-13.25 -8.268,-8.05699 -9.91531,-1.29657 -9.57031,5.48243 l 0.01367,0.03515 c 0.09,1.754 1.57985,5.76932 3.08985,11.32032 1.523,5.586 1.80029,8.61436 3.15429,13.69336 1.354,5.07899 3.01378,5.88404 3.05078,7.24804 0.273,10.012 1.19822,12.87891 -3.05078,17.12891 -2.201,2.2 -9.98731,8.97142 -12.69531,12.35742 -2.709,3.386 -12.69591,8.12517 -19.12891,10.32617 -6.432,2.200004 -1.01618,-1.52467 -29.1171795,9.986334 -9.8703405,4.04318 -19.5042305,11.53927 -27.7265705,20.75781 33.00577048,1.64506 72.45887,10.09071 112.97657,34.5625 3.22956,-4.24314 4.97419,-3.83437 12.40039,-15.36718 9.011002,-13.992 9.010042,-18.86969 8.373042,-28.30469 -0.309,-4.578 -0.42382,-4.45196 -0.42382,-9.75196 0,-5.3 -0.339032,-5.08881 0.91796,-7.63281 1.256,-2.545 3.74611,-11.556644 4.91211,-19.931644 1.166,-8.375 5.32938,-16.15697 6.35938,-22.79297 1.167,-7.516 3.28836,-4.36695 3.81836,-9.75195 0.876,-8.895 5.19726,-17.80986 5.19726,-27.88086 0,-6.29437 -1.94804,-9.27696 -4.88476,-9.23047 z"
               style="fill:#ffffff;fill-opacity:0.08294929;stroke:none;stroke-width:1.37952757;stroke-miterlimit:4;stroke-dasharray:none;stroke-opacity:1" />
          </g>
        </g>
      </g>
    </g>
  </g>
</svg>
